<?xml version="1.0"?>
<svg xmlns="http://www.w3.org/2000/svg" viewBox="0 0 160 200" width="160" height="200" role="img" aria-label="ANTS">
  <title>ANTS lockup · stacked</title>
  <g transform="translate(30 0)">
  <g transform="translate(46 50) rotate(-8) scale(1.05)">
    <path d="M -1.6 -8 L -3.5 -12.5 L -6 -11.5" fill="none" stroke="currentColor" stroke-width="1.4" stroke-linecap="round" stroke-linejoin="round"></path>
    <path d="M  1.6 -8 L  3.5 -12.5 L  6 -11.5" fill="none" stroke="currentColor" stroke-width="1.4" stroke-linecap="round" stroke-linejoin="round"></path>
    <g fill="none" stroke="currentColor" stroke-width="1.3" stroke-linecap="round" stroke-linejoin="round">
      <path d="M -2 -2 Q -8 -4 -12 -9"></path>
      <path d="M  2 -2 Q  8 -4  12 -9"></path>
      <path d="M -3  0 Q -10 1 -14 -1"></path>
      <path d="M  3  0 Q  10 1  14 -1"></path>
      <path d="M -2  3 Q -8 8 -12 13"></path>
      <path d="M  2  3 Q  8 8  12 13"></path>
    </g>
    <circle cx="0" cy="-6" r="2.6" fill="currentColor"></circle>
    <ellipse cx="0" cy="-0.5" rx="2.2" ry="2.4" fill="currentColor"></ellipse>
    <ellipse cx="0" cy="7" rx="3.7" ry="4.8" fill="currentColor"></ellipse>
  </g>
  <g transform="translate(24 30) rotate(-72) scale(0.85)">
    <path d="M -1.6 -8 L -3.5 -12.5 L -6 -11.5" fill="none" stroke="currentColor" stroke-width="1.4" stroke-linecap="round" stroke-linejoin="round"></path>
    <path d="M  1.6 -8 L  3.5 -12.5 L  6 -11.5" fill="none" stroke="currentColor" stroke-width="1.4" stroke-linecap="round" stroke-linejoin="round"></path>
    <g fill="none" stroke="currentColor" stroke-width="1.3" stroke-linecap="round" stroke-linejoin="round">
      <path d="M -2 -2 Q -8 -4 -12 -9"></path>
      <path d="M  2 -2 Q  8 -4  12 -9"></path>
      <path d="M -3  0 Q -10 1 -14 -1"></path>
      <path d="M  3  0 Q  10 1  14 -1"></path>
      <path d="M -2  3 Q -8 8 -12 13"></path>
      <path d="M  2  3 Q  8 8  12 13"></path>
    </g>
    <circle cx="0" cy="-6" r="2.6" fill="currentColor"></circle>
    <ellipse cx="0" cy="-0.5" rx="2.2" ry="2.4" fill="currentColor"></ellipse>
    <ellipse cx="0" cy="7" rx="3.7" ry="4.8" fill="currentColor"></ellipse>
  </g>
  <g transform="translate(70 26) rotate(38) scale(0.8)">
    <path d="M -1.6 -8 L -3.5 -12.5 L -6 -11.5" fill="none" stroke="currentColor" stroke-width="1.4" stroke-linecap="round" stroke-linejoin="round"></path>
    <path d="M  1.6 -8 L  3.5 -12.5 L  6 -11.5" fill="none" stroke="currentColor" stroke-width="1.4" stroke-linecap="round" stroke-linejoin="round"></path>
    <g fill="none" stroke="currentColor" stroke-width="1.3" stroke-linecap="round" stroke-linejoin="round">
      <path d="M -2 -2 Q -8 -4 -12 -9"></path>
      <path d="M  2 -2 Q  8 -4  12 -9"></path>
      <path d="M -3  0 Q -10 1 -14 -1"></path>
      <path d="M  3  0 Q  10 1  14 -1"></path>
      <path d="M -2  3 Q -8 8 -12 13"></path>
      <path d="M  2  3 Q  8 8  12 13"></path>
    </g>
    <circle cx="0" cy="-6" r="2.6" fill="currentColor"></circle>
    <ellipse cx="0" cy="-0.5" rx="2.2" ry="2.4" fill="currentColor"></ellipse>
    <ellipse cx="0" cy="7" rx="3.7" ry="4.8" fill="currentColor"></ellipse>
  </g>
  <g transform="translate(76 62) rotate(105) scale(0.85)">
    <path d="M -1.6 -8 L -3.5 -12.5 L -6 -11.5" fill="none" stroke="currentColor" stroke-width="1.4" stroke-linecap="round" stroke-linejoin="round"></path>
    <path d="M  1.6 -8 L  3.5 -12.5 L  6 -11.5" fill="none" stroke="currentColor" stroke-width="1.4" stroke-linecap="round" stroke-linejoin="round"></path>
    <g fill="none" stroke="currentColor" stroke-width="1.3" stroke-linecap="round" stroke-linejoin="round">
      <path d="M -2 -2 Q -8 -4 -12 -9"></path>
      <path d="M  2 -2 Q  8 -4  12 -9"></path>
      <path d="M -3  0 Q -10 1 -14 -1"></path>
      <path d="M  3  0 Q  10 1  14 -1"></path>
      <path d="M -2  3 Q -8 8 -12 13"></path>
      <path d="M  2  3 Q  8 8  12 13"></path>
    </g>
    <circle cx="0" cy="-6" r="2.6" fill="currentColor"></circle>
    <ellipse cx="0" cy="-0.5" rx="2.2" ry="2.4" fill="currentColor"></ellipse>
    <ellipse cx="0" cy="7" rx="3.7" ry="4.8" fill="currentColor"></ellipse>
  </g>
  <g transform="translate(32 76) rotate(-148) scale(0.85)">
    <path d="M -1.6 -8 L -3.5 -12.5 L -6 -11.5" fill="none" stroke="currentColor" stroke-width="1.4" stroke-linecap="round" stroke-linejoin="round"></path>
    <path d="M  1.6 -8 L  3.5 -12.5 L  6 -11.5" fill="none" stroke="currentColor" stroke-width="1.4" stroke-linecap="round" stroke-linejoin="round"></path>
    <g fill="none" stroke="currentColor" stroke-width="1.3" stroke-linecap="round" stroke-linejoin="round">
      <path d="M -2 -2 Q -8 -4 -12 -9"></path>
      <path d="M  2 -2 Q  8 -4  12 -9"></path>
      <path d="M -3  0 Q -10 1 -14 -1"></path>
      <path d="M  3  0 Q  10 1  14 -1"></path>
      <path d="M -2  3 Q -8 8 -12 13"></path>
      <path d="M  2  3 Q  8 8  12 13"></path>
    </g>
    <circle cx="0" cy="-6" r="2.6" fill="currentColor"></circle>
    <ellipse cx="0" cy="-0.5" rx="2.2" ry="2.4" fill="currentColor"></ellipse>
    <ellipse cx="0" cy="7" rx="3.7" ry="4.8" fill="currentColor"></ellipse>
  </g>
  </g>
  <text x="80" y="180" text-anchor="middle" font-family="IBM Plex Sans, system-ui, sans-serif" font-weight="500" font-size="36" letter-spacing="7.92" fill="currentColor">ANTS</text>
</svg>