<?xml version="1.0"?>
<svg xmlns="http://www.w3.org/2000/svg" viewBox="0 0 1200 630" width="1200" height="630" role="img" aria-label="ANTS — Open Graph">
  <title>ANTS — A peer-to-peer protocol for distributed artificial intelligence.</title>
  <rect width="1200" height="630" fill="#F4F1E9"></rect>
  
  <g transform="translate(72 72) scale(0.96)" color="#0E0E0C">
  <g transform="translate(46 50) rotate(-8) scale(1.05)">
    <path d="M -1.6 -8 L -3.5 -12.5 L -6 -11.5" fill="none" stroke="currentColor" stroke-width="1.4" stroke-linecap="round" stroke-linejoin="round"></path>
    <path d="M  1.6 -8 L  3.5 -12.5 L  6 -11.5" fill="none" stroke="currentColor" stroke-width="1.4" stroke-linecap="round" stroke-linejoin="round"></path>
    <g fill="none" stroke="currentColor" stroke-width="1.3" stroke-linecap="round" stroke-linejoin="round">
      <path d="M -2 -2 Q -8 -4 -12 -9"></path>
      <path d="M  2 -2 Q  8 -4  12 -9"></path>
      <path d="M -3  0 Q -10 1 -14 -1"></path>
      <path d="M  3  0 Q  10 1  14 -1"></path>
      <path d="M -2  3 Q -8 8 -12 13"></path>
      <path d="M  2  3 Q  8 8  12 13"></path>
    </g>
    <circle cx="0" cy="-6" r="2.6" fill="currentColor"></circle>
    <ellipse cx="0" cy="-0.5" rx="2.2" ry="2.4" fill="currentColor"></ellipse>
    <ellipse cx="0" cy="7" rx="3.7" ry="4.8" fill="currentColor"></ellipse>
  </g>
  <g transform="translate(24 30) rotate(-72) scale(0.85)">
    <path d="M -1.6 -8 L -3.5 -12.5 L -6 -11.5" fill="none" stroke="currentColor" stroke-width="1.4" stroke-linecap="round" stroke-linejoin="round"></path>
    <path d="M  1.6 -8 L  3.5 -12.5 L  6 -11.5" fill="none" stroke="currentColor" stroke-width="1.4" stroke-linecap="round" stroke-linejoin="round"></path>
    <g fill="none" stroke="currentColor" stroke-width="1.3" stroke-linecap="round" stroke-linejoin="round">
      <path d="M -2 -2 Q -8 -4 -12 -9"></path>
      <path d="M  2 -2 Q  8 -4  12 -9"></path>
      <path d="M -3  0 Q -10 1 -14 -1"></path>
      <path d="M  3  0 Q  10 1  14 -1"></path>
      <path d="M -2  3 Q -8 8 -12 13"></path>
      <path d="M  2  3 Q  8 8  12 13"></path>
    </g>
    <circle cx="0" cy="-6" r="2.6" fill="currentColor"></circle>
    <ellipse cx="0" cy="-0.5" rx="2.2" ry="2.4" fill="currentColor"></ellipse>
    <ellipse cx="0" cy="7" rx="3.7" ry="4.8" fill="currentColor"></ellipse>
  </g>
  <g transform="translate(70 26) rotate(38) scale(0.8)">
    <path d="M -1.6 -8 L -3.5 -12.5 L -6 -11.5" fill="none" stroke="currentColor" stroke-width="1.4" stroke-linecap="round" stroke-linejoin="round"></path>
    <path d="M  1.6 -8 L  3.5 -12.5 L  6 -11.5" fill="none" stroke="currentColor" stroke-width="1.4" stroke-linecap="round" stroke-linejoin="round"></path>
    <g fill="none" stroke="currentColor" stroke-width="1.3" stroke-linecap="round" stroke-linejoin="round">
      <path d="M -2 -2 Q -8 -4 -12 -9"></path>
      <path d="M  2 -2 Q  8 -4  12 -9"></path>
      <path d="M -3  0 Q -10 1 -14 -1"></path>
      <path d="M  3  0 Q  10 1  14 -1"></path>
      <path d="M -2  3 Q -8 8 -12 13"></path>
      <path d="M  2  3 Q  8 8  12 13"></path>
    </g>
    <circle cx="0" cy="-6" r="2.6" fill="currentColor"></circle>
    <ellipse cx="0" cy="-0.5" rx="2.2" ry="2.4" fill="currentColor"></ellipse>
    <ellipse cx="0" cy="7" rx="3.7" ry="4.8" fill="currentColor"></ellipse>
  </g>
  <g transform="translate(76 62) rotate(105) scale(0.85)">
    <path d="M -1.6 -8 L -3.5 -12.5 L -6 -11.5" fill="none" stroke="currentColor" stroke-width="1.4" stroke-linecap="round" stroke-linejoin="round"></path>
    <path d="M  1.6 -8 L  3.5 -12.5 L  6 -11.5" fill="none" stroke="currentColor" stroke-width="1.4" stroke-linecap="round" stroke-linejoin="round"></path>
    <g fill="none" stroke="currentColor" stroke-width="1.3" stroke-linecap="round" stroke-linejoin="round">
      <path d="M -2 -2 Q -8 -4 -12 -9"></path>
      <path d="M  2 -2 Q  8 -4  12 -9"></path>
      <path d="M -3  0 Q -10 1 -14 -1"></path>
      <path d="M  3  0 Q  10 1  14 -1"></path>
      <path d="M -2  3 Q -8 8 -12 13"></path>
      <path d="M  2  3 Q  8 8  12 13"></path>
    </g>
    <circle cx="0" cy="-6" r="2.6" fill="currentColor"></circle>
    <ellipse cx="0" cy="-0.5" rx="2.2" ry="2.4" fill="currentColor"></ellipse>
    <ellipse cx="0" cy="7" rx="3.7" ry="4.8" fill="currentColor"></ellipse>
  </g>
  <g transform="translate(32 76) rotate(-148) scale(0.85)">
    <path d="M -1.6 -8 L -3.5 -12.5 L -6 -11.5" fill="none" stroke="currentColor" stroke-width="1.4" stroke-linecap="round" stroke-linejoin="round"></path>
    <path d="M  1.6 -8 L  3.5 -12.5 L  6 -11.5" fill="none" stroke="currentColor" stroke-width="1.4" stroke-linecap="round" stroke-linejoin="round"></path>
    <g fill="none" stroke="currentColor" stroke-width="1.3" stroke-linecap="round" stroke-linejoin="round">
      <path d="M -2 -2 Q -8 -4 -12 -9"></path>
      <path d="M  2 -2 Q  8 -4  12 -9"></path>
      <path d="M -3  0 Q -10 1 -14 -1"></path>
      <path d="M  3  0 Q  10 1  14 -1"></path>
      <path d="M -2  3 Q -8 8 -12 13"></path>
      <path d="M  2  3 Q  8 8  12 13"></path>
    </g>
    <circle cx="0" cy="-6" r="2.6" fill="currentColor"></circle>
    <ellipse cx="0" cy="-0.5" rx="2.2" ry="2.4" fill="currentColor"></ellipse>
    <ellipse cx="0" cy="7" rx="3.7" ry="4.8" fill="currentColor"></ellipse>
  </g>
  </g>
  
  <text x="184" y="148" font-family="IBM Plex Sans, system-ui, sans-serif" font-weight="500" font-size="44" letter-spacing="7.04" fill="#0E0E0C">ANTS</text>
  
  <text x="72" y="360" font-family="IBM Plex Sans, system-ui, sans-serif" font-weight="500" font-size="64" letter-spacing="-0.96" fill="#0E0E0C">A peer-to-peer protocol for</text>
  <text x="72" y="436" font-family="IBM Plex Sans, system-ui, sans-serif" font-weight="500" font-size="64" letter-spacing="-0.96" fill="#0E0E0C">distributed artificial intelligence.</text>
  
  <text x="72" y="556" font-family="IBM Plex Mono, ui-monospace, monospace" font-size="20" letter-spacing="1.6" fill="rgba(14,14,12,0.55)">ANTS.COMMUNITY</text>
  <text x="1128" y="556" text-anchor="end" font-family="IBM Plex Mono, ui-monospace, monospace" font-size="20" letter-spacing="1.6" fill="rgba(14,14,12,0.55)">CC0 · V0.1</text>
</svg>